<svg xmlns="http://www.w3.org/2000/svg" xmlns:xlink="http://www.w3.org/1999/xlink" version="1.1" width="256" height="256" viewBox="0 0 256 256" xml:space="preserve">

    <defs>
    </defs>
    <g style="stroke: none; stroke-width: 0; stroke-dasharray: none; stroke-linecap: butt; stroke-linejoin: miter; stroke-miterlimit: 10; fill: none; fill-rule: nonzero; opacity: 1;" transform="translate(1.4065934065934016 1.4065934065934016) scale(2.81 2.81)" >
        <path d="M 89.068 16.429 c -0.595 -0.565 -1.384 -0.87 -2.217 -0.823 c -6.309 0.313 -13.141 1.356 -21.501 3.285 c -0.813 0.188 -1.51 0.705 -1.926 1.428 c -0.224 0.389 -0.347 0.819 -0.382 1.257 c -5.812 -1.655 -12.802 -2.516 -19.203 -2.281 c -2.945 0.018 -6.185 1.349 -9.165 3.342 h -7.821 c 0.222 -0.779 0.127 -1.614 -0.278 -2.318 c -0.416 -0.723 -1.113 -1.24 -1.926 -1.428 c -8.36 -1.929 -15.192 -2.973 -21.5 -3.285 c -0.827 -0.053 -1.622 0.257 -2.217 0.823 C 0.337 16.996 0 17.781 0 18.603 v 32.781 c 0 1.657 1.343 3 3 3 h 11.816 c 0.652 0 1.266 -0.212 1.767 -0.577 c 9.431 10.806 18.957 20.208 26.988 20.208 c 1.338 0 2.634 -0.262 3.882 -0.821 c 1.122 0.773 2.449 1.195 3.846 1.204 c 0.015 0 0.028 0 0.043 0 c 1.82 0 3.531 -0.701 4.822 -1.976 c 0.422 -0.417 0.776 -0.883 1.071 -1.38 c 0.627 0.182 1.275 0.275 1.923 0.275 c 1.743 0 3.487 -0.658 4.822 -1.977 c 0.894 -0.883 1.487 -1.955 1.793 -3.089 c 1.546 -0.119 3.038 -0.734 4.177 -1.859 c 2.458 -2.428 2.69 -6.265 0.691 -8.964 l 2.728 -1.66 c 0.51 0.388 1.141 0.615 1.815 0.615 H 87 c 1.657 0 3 -1.343 3 -3 V 18.603 C 90 17.781 89.663 16.996 89.068 16.429 z M 43.902 25.295 c 0.039 0 0.077 -0.001 0.116 -0.002 c 7.151 -0.275 15.357 1.02 20.953 3.257 l 6.074 19.61 L 66.7 50.804 c -5.928 -6.656 -12.459 -12.477 -19.487 -17.324 c -1.023 -0.706 -2.377 -0.707 -3.402 -0.003 c -0.859 0.59 -1.931 0.796 -3.36 0.658 c -0.933 -0.091 -1.843 0.252 -2.48 0.931 c -4.305 4.58 -5.859 3.713 -7.633 2.324 c -0.057 -0.312 0.052 -1.584 1.52 -3.761 C 34.85 29.19 40.479 25.295 43.902 25.295 z M 6 48.384 V 21.816 c 4.266 0.375 8.875 1.1 14.146 2.221 l -7.541 24.346 H 6 z M 59.764 65.07 c -0.214 0.212 -0.47 0.244 -0.606 0.244 c -0.137 0.006 -0.396 -0.031 -0.615 -0.252 l -2.319 -2.348 L 45.771 52.134 c -1.165 -1.178 -3.064 -1.191 -4.243 -0.025 c -1.179 1.164 -1.19 3.063 -0.026 4.242 l 10.452 10.581 c 0.329 0.333 0.326 0.893 -0.007 1.221 c -0.215 0.213 -0.471 0.245 -0.607 0.245 c -0.128 0.027 -0.396 -0.031 -0.614 -0.252 l -12.772 -12.93 c -1.165 -1.178 -3.064 -1.191 -4.243 -0.025 c -1.179 1.164 -1.19 3.063 -0.026 4.242 l 8.196 8.297 c -6.694 -1.698 -16.757 -13.136 -22.748 -20.144 l 5.869 -18.948 h 3.102 c -1.279 1.59 -2.303 3.232 -2.947 4.795 c -1.856 4.504 -0.203 7.094 0.948 8.236 c 0.079 0.079 0.163 0.153 0.25 0.222 c 3.423 2.712 8.187 4.896 15.004 -1.715 c 1.411 -0.013 2.719 -0.255 3.913 -0.724 c 7.402 5.309 14.216 11.772 20.275 19.234 c 0.062 0.075 0.126 0.147 0.194 0.217 c 0.329 0.333 0.325 0.892 -0.008 1.221 c -0.229 0.228 -1.036 0.199 -1.456 -0.228 c -0.002 -0.002 -0.005 -0.004 -0.008 -0.006 c -0.077 -0.086 -0.148 -0.175 -0.23 -0.257 L 53.587 49.051 c -1.164 -1.179 -3.063 -1.19 -4.242 -0.025 c -1.179 1.164 -1.19 3.063 -0.025 4.242 l 10.452 10.581 C 60.101 64.182 60.098 64.741 59.764 65.07 z M 84 48.384 h -6.605 l -7.54 -24.346 c 5.27 -1.122 9.88 -1.846 14.146 -2.221 V 48.384 z" style="stroke: none; stroke-width: 1; stroke-dasharray: none; stroke-linecap: butt; stroke-linejoin: miter; stroke-miterlimit: 10; fill: rgb(0,0,0); fill-rule: nonzero; opacity: 1;" transform=" matrix(1 0 0 1 0 0) " stroke-linecap="round" />
    </g>
    </svg>