<svg xmlns="http://www.w3.org/2000/svg" xmlns:xlink="http://www.w3.org/1999/xlink" version="1.1" width="256" height="256" viewBox="0 0 256 256" xml:space="preserve">

<defs>
</defs>
<g style="stroke: none; stroke-width: 0; stroke-dasharray: none; stroke-linecap: butt; stroke-linejoin: miter; stroke-miterlimit: 10; fill: none; fill-rule: nonzero; opacity: 1;" transform="translate(1.4065934065934016 1.4065934065934016) scale(2.81 2.81)" >
	<path d="M 89.728 41.723 c -0.556 -0.954 -1.78 -1.278 -2.734 -0.721 l -11.718 6.829 c -1.706 -1.46 -4.172 -1.789 -6.226 -0.671 l -3.669 1.995 l -12.597 6.311 c -4.941 -4.132 -10.426 -6.791 -15.939 -7.719 c -0.009 -0.002 -0.017 -0.004 -0.026 -0.005 c -0.002 0 -0.005 -0.001 -0.007 -0.001 c -0.004 -0.001 -0.007 -0.002 -0.01 -0.003 c -1.461 -0.245 -2.521 -1.362 -2.521 -2.701 l -0.017 -0.754 c 2.781 -2.79 4.577 -6.514 4.917 -10.577 c 0.001 -0.006 -0.001 -0.012 0 -0.019 c 0 -0.007 0.003 -0.013 0.003 -0.02 l 0.462 -7.185 c 2.682 -4.176 3.543 -7.966 2.518 -11.265 c -0.878 -2.829 -3.111 -5.218 -6.653 -7.127 c 0.072 -0.034 0.147 -0.069 0.225 -0.105 c 0.733 -0.337 1.192 -1.082 1.164 -1.889 c -0.028 -0.807 -0.54 -1.517 -1.295 -1.801 c -7.524 -2.827 -17.096 -2.473 -21.916 4.516 c -2.538 1.046 -4.386 2.947 -5.245 5.416 c -1.213 3.489 -0.356 7.815 2.378 12.231 l 0.439 7.248 c 0.34 4.063 2.137 7.788 4.919 10.578 l -0.019 0.798 c 0 1.294 -1.06 2.411 -2.521 2.656 l -6.268 1.057 C 3.099 49.514 0 52.992 0 57.065 v 28.303 c 0 1.104 0.896 2 2 2 h 40.296 c 0.535 0 1.047 -0.214 1.423 -0.595 c 0.376 -0.381 0.583 -0.896 0.577 -1.431 L 44.095 69.36 l 7.862 1.835 c 0.522 0.124 1.074 0.029 1.527 -0.259 l 18.116 -11.511 c 0.017 -0.011 0.03 -0.026 0.047 -0.037 c 0.009 -0.006 0.02 -0.008 0.028 -0.014 l 3.465 -2.427 c 1.212 -0.848 2.02 -2.116 2.276 -3.572 c 0.127 -0.721 0.109 -1.446 -0.042 -2.14 l 11.632 -6.778 C 89.961 43.902 90.284 42.677 89.728 41.723 z M 19.84 47.07 c 0.815 0.461 1.67 0.866 2.568 1.19 c 0.903 0.326 1.848 0.492 2.81 0.492 s 1.907 -0.166 2.81 -0.492 c 0.002 -0.001 0.003 -0.002 0.005 -0.002 c 0.898 -0.325 1.753 -0.73 2.569 -1.192 c 0.432 1.319 1.283 2.469 2.422 3.305 l -7.806 7.986 l -7.805 -7.985 C 18.557 49.534 19.411 48.383 19.84 47.07 z M 12.219 15.541 c 0.525 -1.511 1.708 -2.615 3.42 -3.192 c 0.441 -0.148 0.817 -0.446 1.062 -0.842 c 2.159 -3.486 5.979 -4.877 10.047 -4.877 c 1.208 0 2.438 0.123 3.653 0.35 c -0.25 0.366 -0.419 0.747 -0.515 1.15 c -0.231 0.967 0.285 1.958 1.209 2.324 c 4.084 1.616 6.522 3.618 7.247 5.95 c 0.32 1.032 0.322 2.192 0.007 3.473 c -0.676 -0.573 -1.547 -0.793 -2.403 -0.634 c -2.578 0.402 -5.42 0.598 -8.692 -0.653 c -4.019 -1.683 -9.088 -3.329 -12.65 -1.107 c -0.98 0.612 -1.77 1.446 -2.372 2.515 C 11.786 18.333 11.774 16.818 12.219 15.541 z M 14.791 25.874 c 0.169 -2.62 0.817 -4.304 1.93 -4.998 c 1.524 -0.951 4.464 -0.492 9.046 1.425 c 3.797 1.453 7.101 1.389 9.933 1.015 c 0.042 0.45 0.056 1.192 -0.016 2.409 c 0 0 0 0 0 0 l -0.492 7.654 c -0.425 5.037 -3.77 9.401 -8.524 11.119 c 0 0 -0.001 0 -0.001 0 c -0.465 0.168 -0.953 0.253 -1.449 0.253 c -0.496 0 -0.984 -0.085 -1.45 -0.254 c -4.757 -1.719 -8.103 -6.086 -8.521 -11.081 L 14.791 25.874 z M 52.049 67.109 l -9.531 -2.225 c -0.598 -0.141 -1.228 0.002 -1.708 0.389 c -0.479 0.385 -0.754 0.969 -0.747 1.584 l 0.207 16.511 H 15.968 V 72.945 c 0 -1.104 -0.896 -2 -2 -2 s -2 0.896 -2 2 v 10.423 H 4 V 57.065 c 0 -2.113 1.696 -3.934 4.033 -4.327 l 5.236 -0.882 l 10.519 10.761 c 0.376 0.385 0.892 0.602 1.43 0.602 s 1.054 -0.217 1.43 -0.602 l 10.485 -10.726 c 4.839 1.02 9.666 3.568 14.021 7.453 c 0.61 0.546 1.494 0.663 2.227 0.296 l 12.185 -6.104 l 2.22 3.575 L 52.049 67.109 z M 73.478 52.682 c -0.071 0.403 -0.295 0.755 -0.631 0.99 l -1.734 1.215 l -1.994 -3.212 l 1.841 -1 c 0.686 -0.373 1.54 -0.173 1.987 0.465 l 0.276 0.396 C 73.458 51.871 73.549 52.278 73.478 52.682 z" style="stroke: none; stroke-width: 1; stroke-dasharray: none; stroke-linecap: butt; stroke-linejoin: miter; stroke-miterlimit: 10; fill: rgb(0,0,0); fill-rule: nonzero; opacity: 1;" transform=" matrix(1 0 0 1 0 0) " stroke-linecap="round" />
</g>
</svg>