<svg xmlns="http://www.w3.org/2000/svg" viewBox="0 0 64 64" id="laptop"><path d="M54,40.723V13a1,1,0,0,0-1-1H11a1,1,0,0,0-1,1V40.723L4.14258,50.48535A1.00009,1.00009,0,0,0,5,52H59a1.00009,1.00009,0,0,0,.85742-1.51465ZM12,14H52V40H12ZM6.76611,50l4.8003-8H52.43359l4.8003,8Z"></path><path d="M31.29 15.29A1.05 1.05 0 0 0 31 16a1.03171 1.03171 0 0 0 .29.71 1.004 1.004 0 1 0 0-1.41992zM20.5 44a1 1 0 0 0-1-1h-3a1 1 0 0 0 0 2h3A1 1 0 0 0 20.5 44zM27.5 44a1 1 0 0 0-1-1h-3a1 1 0 0 0 0 2h3A1 1 0 0 0 27.5 44zM30.5 45h3a1 1 0 0 0 0-2h-3a1 1 0 0 0 0 2zM41.5 44a1 1 0 0 0-1-1h-3a1 1 0 0 0 0 2h3A1 1 0 0 0 41.5 44zM48.5 44a1 1 0 0 0-1-1h-3a1 1 0 0 0 0 2h3A1 1 0 0 0 48.5 44zM15 47H12a1 1 0 0 0 0 2h3a1 1 0 0 0 0-2zM22 47H19a1 1 0 0 0 0 2h3a1 1 0 0 0 0-2zM38 47H26a1 1 0 0 0 0 2H38a1 1 0 0 0 0-2zM45 47H42a1 1 0 0 0 0 2h3a1 1 0 0 0 0-2zM49 47a1 1 0 0 0 0 2h3a1 1 0 0 0 0-2z"></path></svg>